<mxfile host="app.diagrams.net" agent="Mozilla/5.0 (Windows NT 10.0; Win64; x64) AppleWebKit/537.36 (KHTML, like Gecko) Chrome/127.0.0.0 Safari/537.36" version="24.7.7">
  <diagram name="Page-1" id="i2prnzRZguV9rVKFFl79">
    <mxGraphModel dx="1674" dy="746" grid="1" gridSize="10" guides="1" tooltips="1" connect="1" arrows="1" fold="1" page="1" pageScale="1" pageWidth="1654" pageHeight="1169" math="0" shadow="0">
      <root>
        <mxCell id="0" />
        <mxCell id="1" parent="0" />
        <mxCell id="3V9wm4Z0FJ4fFLGG_Uxp-1" value="" style="image;points=[];aspect=fixed;html=1;align=center;shadow=0;dashed=0;image=img/lib/allied_telesis/computer_and_terminals/Personal_Computer_with_Server.svg;" vertex="1" parent="1">
          <mxGeometry x="580" y="90" width="140" height="140" as="geometry" />
        </mxCell>
        <mxCell id="3V9wm4Z0FJ4fFLGG_Uxp-17" style="edgeStyle=orthogonalEdgeStyle;rounded=0;orthogonalLoop=1;jettySize=auto;html=1;" edge="1" parent="1" source="3V9wm4Z0FJ4fFLGG_Uxp-2">
          <mxGeometry relative="1" as="geometry">
            <mxPoint x="570" y="210" as="targetPoint" />
          </mxGeometry>
        </mxCell>
        <mxCell id="3V9wm4Z0FJ4fFLGG_Uxp-2" value="" style="image;points=[];aspect=fixed;html=1;align=center;shadow=0;dashed=0;image=img/lib/allied_telesis/computer_and_terminals/Personal_Computer.svg;" vertex="1" parent="1">
          <mxGeometry x="222" y="245" width="81.17" height="110" as="geometry" />
        </mxCell>
        <mxCell id="3V9wm4Z0FJ4fFLGG_Uxp-12" value="" style="image;points=[];aspect=fixed;html=1;align=center;shadow=0;dashed=0;image=img/lib/allied_telesis/computer_and_terminals/Personal_Computer_with_Server.svg;" vertex="1" parent="1">
          <mxGeometry x="200" y="530" width="102.4" height="102.4" as="geometry" />
        </mxCell>
        <mxCell id="3V9wm4Z0FJ4fFLGG_Uxp-13" style="edgeStyle=orthogonalEdgeStyle;rounded=0;orthogonalLoop=1;jettySize=auto;html=1;entryX=0;entryY=0.5;entryDx=0;entryDy=0;entryPerimeter=0;" edge="1" parent="1" source="3V9wm4Z0FJ4fFLGG_Uxp-12" target="3V9wm4Z0FJ4fFLGG_Uxp-1">
          <mxGeometry relative="1" as="geometry" />
        </mxCell>
        <mxCell id="3V9wm4Z0FJ4fFLGG_Uxp-16" value="" style="image;points=[];aspect=fixed;html=1;align=center;shadow=0;dashed=0;image=img/lib/allied_telesis/computer_and_terminals/Tablet.svg;" vertex="1" parent="1">
          <mxGeometry x="239.61" y="400" width="45.95" height="97" as="geometry" />
        </mxCell>
        <mxCell id="3V9wm4Z0FJ4fFLGG_Uxp-18" style="edgeStyle=orthogonalEdgeStyle;rounded=0;orthogonalLoop=1;jettySize=auto;html=1;entryX=0.364;entryY=1.014;entryDx=0;entryDy=0;entryPerimeter=0;" edge="1" parent="1" source="3V9wm4Z0FJ4fFLGG_Uxp-16" target="3V9wm4Z0FJ4fFLGG_Uxp-1">
          <mxGeometry relative="1" as="geometry">
            <mxPoint x="480" y="300" as="targetPoint" />
            <Array as="points">
              <mxPoint x="390" y="449" />
              <mxPoint x="390" y="300" />
              <mxPoint x="479" y="300" />
              <mxPoint x="479" y="212" />
            </Array>
          </mxGeometry>
        </mxCell>
        <mxCell id="3V9wm4Z0FJ4fFLGG_Uxp-21" style="edgeStyle=orthogonalEdgeStyle;rounded=0;orthogonalLoop=1;jettySize=auto;html=1;" edge="1" parent="1" source="3V9wm4Z0FJ4fFLGG_Uxp-19">
          <mxGeometry relative="1" as="geometry">
            <mxPoint x="478" y="301" as="targetPoint" />
            <Array as="points">
              <mxPoint x="390" y="140" />
              <mxPoint x="390" y="301" />
            </Array>
          </mxGeometry>
        </mxCell>
        <mxCell id="3V9wm4Z0FJ4fFLGG_Uxp-19" value="" style="image;aspect=fixed;perimeter=ellipsePerimeter;html=1;align=center;shadow=0;dashed=0;spacingTop=3;image=img/lib/active_directory/folder_open.svg;" vertex="1" parent="1">
          <mxGeometry x="225.79" y="100" width="73.6" height="80" as="geometry" />
        </mxCell>
      </root>
    </mxGraphModel>
  </diagram>
</mxfile>
